<?xml version="1.0" standalone="no"?>
<!DOCTYPE svg PUBLIC "-//W3C//DTD SVG 20010904//EN"
 "http://www.w3.org/TR/2001/REC-SVG-20010904/DTD/svg10.dtd">
<svg version="1.0" xmlns="http://www.w3.org/2000/svg"
 width="317.000000pt" height="317.000000pt" viewBox="0 0 317.000000 317.000000"
 preserveAspectRatio="xMidYMid meet">
<metadata>
Created by potrace 1.11, written by Peter Selinger 2001-2013
</metadata>
<g transform="translate(0.000000,317.000000) scale(0.100000,-0.100000)"
fill="#000000" stroke="none">
<path d="M80 1669 l0 -1500 126 2 c110 1 125 3 122 17 -3 14 -19 17 -108 17
l-105 0 -1 1462 c0 1033 3 1463 10 1466 6 2 666 4 1466 3 l1455 -1 3 -1466 2
-1466 -105 1 c-77 1 -106 -2 -110 -12 -7 -20 13 -23 135 -20 l113 3 0 1480
c-1 814 -2 1488 -2 1497 -1 16 -99 17 -1501 17 l-1500 0 0 -1500z"/>
<path d="M2455 323 c-65 -12 -94 -41 -102 -99 -10 -74 61 -137 134 -118 20 5
38 14 40 20 3 8 -7 9 -37 0 -33 -8 -46 -8 -68 5 -39 22 -56 58 -48 102 11 57
62 83 129 66 15 -4 27 -4 27 1 0 11 -51 27 -75 23z"/>
<path d="M449 309 c-6 -55 -4 -186 3 -195 13 -18 95 -3 110 20 13 19 9 45 -11
65 -17 17 -18 21 -5 32 16 13 18 47 5 68 -12 19 -101 28 -102 10z m89 -38 c4
-29 -7 -41 -44 -47 -28 -4 -30 -3 -31 36 l-2 41 37 -3 c30 -2 38 -7 40 -27z
m4 -77 c4 -3 8 -16 8 -30 0 -26 -37 -48 -69 -42 -15 3 -25 61 -14 81 4 7 59 1
75 -9z"/>
<path d="M660 217 l0 -107 25 -1 c68 -3 85 -1 85 9 0 5 -19 8 -42 8 l-43 -1
-3 90 c-4 131 -22 133 -22 2z"/>
<path d="M902 268 c-49 -123 -61 -158 -52 -158 5 0 16 16 24 35 14 33 18 35
60 35 42 0 45 -2 56 -35 10 -30 30 -49 30 -27 -1 18 -78 196 -86 199 -6 2 -20
-20 -32 -49z m62 -67 c-2 -2 -17 -5 -34 -6 -35 -3 -38 8 -13 60 l17 36 16 -43
c9 -24 15 -45 14 -47z"/>
<path d="M1109 288 c-4 -135 -3 -178 6 -175 6 2 11 36 11 75 1 40 2 77 3 83 1
6 31 -27 67 -75 36 -47 71 -86 78 -86 13 0 16 193 4 206 -9 8 -11 -20 -10
-108 1 -32 -1 -58 -4 -58 -9 0 -26 20 -83 98 -29 39 -57 72 -62 72 -5 0 -9
-15 -10 -32z"/>
<path d="M1380 215 c0 -63 4 -105 10 -105 6 0 10 22 10 50 l0 49 46 -49 c26
-28 54 -50 63 -50 9 0 -5 20 -37 53 l-52 53 47 47 c25 26 43 50 39 54 -4 4
-26 -14 -50 -40 -23 -26 -45 -47 -49 -47 -4 0 -7 20 -7 45 0 25 -4 45 -10 45
-6 0 -10 -42 -10 -105z"/>
<path d="M1735 296 c-23 -35 -6 -69 44 -90 35 -14 41 -20 41 -46 0 -24 -5 -31
-26 -36 -14 -4 -37 -1 -51 5 -19 9 -24 9 -21 -1 3 -7 17 -17 32 -23 34 -12 75
9 87 43 7 19 3 29 -20 53 -16 16 -36 29 -45 29 -36 0 -43 69 -7 71 24 2 24 2
48 -6 18 -5 22 -3 17 9 -4 11 -19 16 -45 16 -29 0 -42 -6 -54 -24z"/>
<path d="M1939 301 c-1 -12 -1 -52 -1 -91 0 -100 1 -114 9 -106 4 4 8 19 9 34
1 15 2 32 3 37 0 6 13 12 29 13 31 2 62 35 62 66 -1 34 -25 56 -69 62 -37 5
-41 4 -42 -15z m72 -11 c19 -11 25 -45 11 -67 -4 -7 -21 -15 -38 -19 -30 -6
-30 -5 -28 38 1 23 2 46 3 51 1 10 29 9 52 -3z"/>
<path d="M2143 215 c-22 -58 -37 -105 -32 -105 5 0 15 16 24 36 14 34 16 35
62 32 44 -3 48 -5 57 -35 8 -29 26 -46 26 -25 1 19 -76 202 -85 202 -5 0 -29
-47 -52 -105z m82 -15 c-5 -7 -53 -5 -61 3 -3 2 3 24 12 48 l18 43 18 -43 c10
-24 16 -46 13 -51z"/>
<path d="M2620 215 c0 -63 4 -105 10 -106 13 -1 87 -1 102 0 30 2 -9 16 -45
16 l-42 1 0 39 c0 39 1 40 37 40 41 0 65 14 27 16 -64 3 -64 3 -67 42 l-3 37
45 0 c25 0 46 5 46 10 0 6 -25 10 -55 10 l-55 0 0 -105z"/>
</g>
</svg>
